<svg width="72" height="72" viewBox="0 0 72 72" fill="none" xmlns="http://www.w3.org/2000/svg">
<rect width="72" height="72" fill="white"/>
<path fill-rule="evenodd" clip-rule="evenodd" d="M53.6525 21.5875C53.6525 23.3771 52.2017 24.8275 50.4125 24.8275C48.6233 24.8275 47.1725 23.3771 47.1725 21.5875C47.1725 19.7979 48.6233 18.3475 50.4125 18.3475C52.2021 18.3475 53.6525 19.7979 53.6525 21.5875ZM36 44.9999C31.0295 44.9999 27.0001 40.9705 27.0001 36C27.0001 31.0295 31.0295 27.0001 36 27.0001C40.9705 27.0001 44.9999 31.0295 44.9999 36C44.9999 40.9705 40.9705 44.9999 36 44.9999ZM36 22.1351C28.3425 22.1351 22.1351 28.3425 22.1351 36C22.1351 43.6575 28.3425 49.8649 36 49.8649C43.6575 49.8649 49.8649 43.6575 49.8649 36C49.8649 28.3425 43.6575 22.1351 36 22.1351ZM36 13.8651C43.2094 13.8651 44.0633 13.8925 46.9101 14.0224C49.5426 14.1427 50.9723 14.5823 51.9237 14.9522C53.1838 15.442 54.0832 16.0272 55.0282 16.9722C55.9732 17.9167 56.5584 18.8162 57.0482 20.0768C57.4177 21.0281 57.8578 22.4578 57.978 25.0903C58.1079 27.9375 58.1354 28.7914 58.1354 36.0008C58.1354 43.2103 58.1079 44.0641 57.978 46.911C57.8578 49.5435 57.4182 50.9732 57.0482 51.9245C56.5584 53.1847 55.9732 54.0841 55.0282 55.0291C54.0837 55.9741 53.1842 56.5592 51.9237 57.049C50.9723 57.4186 49.5426 57.8586 46.9101 57.9788C44.0633 58.1088 43.2094 58.1362 36 58.1362C28.7902 58.1362 27.9363 58.1088 25.0895 57.9788C22.457 57.8586 21.0272 57.419 20.0759 57.049C18.8158 56.5592 17.9163 55.9741 16.9713 55.0291C16.0268 54.0845 15.4412 53.1851 14.9514 51.9245C14.5818 50.9732 14.1418 49.5435 14.0216 46.911C13.8916 44.0637 13.8642 43.2098 13.8642 36.0008C13.8642 28.7914 13.8916 27.9375 14.0216 25.0903C14.1418 22.4578 14.5814 21.0281 14.9514 20.0768C15.4412 18.8166 16.0263 17.9172 16.9713 16.9722C17.9159 16.0272 18.8153 15.442 20.0759 14.9522C21.0272 14.5827 22.457 14.1427 25.0895 14.0224C27.9367 13.8925 28.7906 13.8651 36 13.8651ZM36 9C28.6674 9 27.7477 9.03122 24.868 9.16242C21.9942 9.29362 20.0312 9.75009 18.3142 10.4175C16.5385 11.1073 15.0328 12.0307 13.5318 13.5318C12.0307 15.0328 11.1073 16.5385 10.4175 18.3142C9.75009 20.0316 9.29362 21.9942 9.16242 24.868C9.03122 27.7477 9 28.6674 9 36C9 43.3326 9.03122 44.2523 9.16242 47.132C9.29362 50.0058 9.75009 51.9684 10.4175 53.6858C11.1073 55.4615 12.0307 56.9672 13.5318 58.4682C15.0328 59.9693 16.5385 60.8923 18.3142 61.5825C20.0316 62.2499 21.9942 62.7064 24.868 62.8376C27.7477 62.9688 28.6674 63 36 63C43.3326 63 44.2523 62.9688 47.132 62.8376C50.0058 62.7064 51.9684 62.2499 53.6858 61.5825C55.4615 60.8923 56.9672 59.9693 58.4682 58.4682C59.9693 56.9672 60.8923 55.4615 61.5825 53.6858C62.2499 51.9684 62.7064 50.0058 62.8376 47.132C62.9688 44.2523 63 43.3326 63 36C63 28.6674 62.9688 27.7477 62.8376 24.868C62.7064 21.9942 62.2499 20.0316 61.5825 18.3142C60.8923 16.5385 59.9693 15.0328 58.4682 13.5318C56.9672 12.0307 55.4615 11.1077 53.6858 10.4175C51.9684 9.75009 50.0058 9.29362 47.132 9.16242C44.2523 9.03122 43.3326 9 36 9Z" fill="url(#paint0_radial_99_7)"/>
<defs>
<radialGradient id="paint0_radial_99_7" cx="0" cy="0" r="1" gradientUnits="userSpaceOnUse" gradientTransform="translate(17.0625 63.1875) scale(68.9985)">
<stop stop-color="#FFB140"/>
<stop offset="0.2559" stop-color="#FF5445"/>
<stop offset="0.599" stop-color="#FC2B82"/>
<stop offset="1" stop-color="#8E40B7"/>
</radialGradient>
</defs>
</svg>
