<svg width="72" height="72" viewBox="0 0 72 72" fill="none" xmlns="http://www.w3.org/2000/svg">
<rect width="72" height="72" fill="white"/>
<path d="M4.83069 34.932C10.4573 31.8701 16.7382 29.3147 22.6067 26.7462C32.7029 22.5392 42.8392 18.4051 53.0777 14.5563C55.0698 13.9005 58.649 13.2592 59 16.1756C58.8079 20.3037 58.0173 24.4077 57.475 28.5117C56.0986 37.5367 54.5079 46.5308 52.9566 55.5262C52.4221 58.5224 48.6227 60.0735 46.1916 58.1561C40.3491 54.2574 34.4617 50.3967 28.6939 46.4076C26.8045 44.511 28.5565 41.7873 30.2439 40.4329C35.056 35.748 40.1592 31.7677 44.7197 26.8407C45.9499 23.9059 42.3151 26.3793 41.1162 27.1371C34.5285 31.6219 28.102 36.3805 21.1565 40.322C17.6088 42.2513 13.4738 40.6025 9.92767 39.5259C6.74808 38.2254 2.08883 36.9152 4.83037 34.9322L4.83069 34.932Z" fill="#92CAFF"/>
</svg>
