<svg width="72" height="72" viewBox="0 0 72 72" fill="none" xmlns="http://www.w3.org/2000/svg">
<rect width="72" height="72" fill="white"/>
<path d="M36.0001 9C21.1126 9 9.00017 21.1124 9.00017 36C9.00017 40.6487 10.2011 45.2199 12.4785 49.2535L9.04361 61.5091C8.93091 61.9118 9.04009 62.3438 9.33122 62.6431C9.55543 62.8744 9.86065 63 10.1741 63C10.268 63 10.3631 62.9883 10.4558 62.966L23.2467 59.7976C27.1523 61.8942 31.551 63 36.0001 63C50.8876 63 63 50.8876 63 36C63 21.1124 50.8876 9 36.0001 9ZM49.5822 45.5275C49.0047 47.1263 46.2342 48.5855 44.903 48.7816C43.708 48.9565 42.196 49.0316 40.5361 48.5104C39.53 48.1934 38.2387 47.7732 36.5847 47.0677C29.6316 44.1023 25.0909 37.1892 24.7435 36.7325C24.3972 36.2759 21.9132 33.0218 21.9132 29.6538C21.9132 26.2859 23.7034 24.6295 24.3396 23.9439C24.9759 23.2583 25.726 23.087 26.1886 23.087C26.6511 23.087 27.1124 23.0928 27.5174 23.1116C27.9435 23.1327 28.5152 22.9508 29.0775 24.2867C29.6551 25.6578 31.0415 29.0258 31.2129 29.3697C31.3866 29.7125 31.5017 30.1128 31.2716 30.5695C31.0415 31.0261 30.9265 31.3114 30.579 31.7117C30.2315 32.112 29.8511 32.6039 29.5389 32.9114C29.1914 33.253 28.831 33.6228 29.2348 34.3084C29.6387 34.994 31.0298 37.235 33.0911 39.0498C35.7383 41.3812 37.9723 42.1043 38.6649 42.4471C39.3575 42.7899 39.7625 42.7324 40.1663 42.2757C40.5701 41.8179 41.899 40.2766 42.3603 39.5922C42.8217 38.9078 43.2842 39.0205 43.9205 39.2494C44.5567 39.4771 47.9646 41.1323 48.6572 41.4751C49.3498 41.8179 49.8123 41.9893 49.986 42.2746C50.1598 42.5587 50.1598 43.9298 49.5822 45.5275Z" fill="#69EA76"/>
</svg>
